<?xml version="1.0" encoding="UTF-8" standalone="no"?>
<!DOCTYPE svg PUBLIC "-//W3C//DTD SVG 1.1//EN" "http://www.w3.org/Graphics/SVG/1.1/DTD/svg11.dtd">
<svg width="100%" height="100%" viewBox="0 0 2726 1384" version="1.1" xmlns="http://www.w3.org/2000/svg" xmlns:xlink="http://www.w3.org/1999/xlink" xml:space="preserve" style="fill-rule:evenodd;clip-rule:evenodd;stroke-linejoin:round;stroke-miterlimit:1.41421;">
    <g transform="matrix(1,0,0,1,-3799.67,-3435.48)">
        <g transform="matrix(0.940741,0,0,0.967619,3515,2059)">
            <g transform="matrix(5.65473,0,0,5.49766,10.8154,1147.64)">
                <g>
                    <g>
                        <path d="M509.082,288.398L113.647,288.398L113.647,103.523L130.392,103.523L130.392,187.779L147.133,187.779L147.133,103.523L163.877,103.523L163.877,255.335L147.133,255.335L147.133,204.67L130.392,204.67L130.392,271.768L509.082,271.768L509.082,288.398Z" style="fill:rgb(70,131,255);fill-rule:nonzero;"/>
                        <path d="M214.293,120.412L197.552,120.412L197.552,187.779L214.293,187.779L214.293,120.412ZM231.037,107.698L231.037,255.335L214.293,255.335L214.293,204.67L197.552,204.67L197.552,255.335L180.808,255.335L180.808,107.698L184.949,103.523L226.709,103.523L231.037,107.698Z" style="fill:rgb(70,131,255);fill-rule:nonzero;"/>
                        <path d="M281.264,187.966L281.264,120.603L264.523,120.603L264.523,238.637L281.264,238.637L281.264,204.854L298.006,204.854L298.006,251.158L293.68,255.524L251.92,255.524L247.779,251.158L247.779,107.891L251.92,103.715L293.68,103.715L298.006,107.891L298.006,187.966L281.264,187.966Z" style="fill:rgb(70,131,255);fill-rule:nonzero;"/>
                        <path d="M534.152,267.034C526.893,267.034 520.987,272.94 520.987,280.199C520.987,287.459 526.893,293.365 534.152,293.365C541.412,293.365 547.318,287.459 547.318,280.199C547.318,272.94 541.412,267.034 534.152,267.034ZM534.152,309.995C517.723,309.995 504.356,296.63 504.356,280.199C504.356,263.77 517.723,250.403 534.152,250.403C550.583,250.403 563.949,263.77 563.949,280.199C563.949,296.63 550.583,309.995 534.152,309.995Z" style="fill:rgb(70,131,255);fill-rule:nonzero;"/>
                        <g transform="matrix(1,0,0,1,3.55106,0)">
                            <path d="M364.784,204.67L364.784,255.335L348.04,255.335L348.04,204.67L331.302,204.67L331.302,255.335L314.558,255.335L314.558,103.523L331.302,103.523L331.302,187.779L348.04,187.779L348.04,103.523L364.784,103.523L364.784,187.779L356.323,196.316L364.784,204.67Z" style="fill:rgb(53,201,130);fill-rule:nonzero;"/>
                            <path d="M415.201,170.892L415.201,120.412L398.462,120.412L398.462,187.779L427.619,187.779L431.945,192.143L431.945,251.158L427.619,255.335L385.859,255.335L381.718,251.158L381.718,221.558L398.462,221.558L398.462,238.445L415.201,238.445L415.201,204.67L385.859,204.67L381.718,200.493L381.718,107.698L385.859,103.523L427.619,103.523L431.945,107.687L431.945,170.892L415.201,170.892Z" style="fill:rgb(53,201,130);fill-rule:nonzero;"/>
                            <path d="M102.1,71.074L498.104,71.279L498.916,251.158L494.585,255.335L452.83,255.335L448.689,251.158L448.689,103.523L465.434,103.523L465.434,238.445L482.172,238.445L482.172,87.335L102.1,87.335L102.1,71.074Z" style="fill:rgb(53,201,130);fill-rule:nonzero;"/>
                            <path d="M77.847,66.635C70.587,66.635 64.681,72.541 64.681,79.801C64.681,87.061 70.587,92.967 77.847,92.967C85.107,92.967 91.013,87.061 91.013,79.801C91.013,72.541 85.107,66.635 77.847,66.635ZM77.847,109.597C61.418,109.597 48.05,96.232 48.05,79.801C48.05,63.372 61.418,50.005 77.847,50.005C94.277,50.005 107.644,63.372 107.644,79.801C107.644,96.232 94.277,109.597 77.847,109.597Z" style="fill:rgb(53,201,130);fill-rule:nonzero;"/>
                        </g>
                    </g>
                </g>
            </g>
        </g>
    </g>
</svg>
